<svg width="136" height="53" viewBox="0 0 136 53" fill="none" xmlns="http://www.w3.org/2000/svg">
<g clip-path="url(#clip0_7101_3548)">
<path d="M0 52.158V50.9214H3.60551V21.4919H0V20.2516H23.7776V28.7926H22.7616C22.5406 26.0502 21.8407 24.1474 20.6618 23.0841C19.483 22.0208 17.4136 21.4894 14.4537 21.49H8.45135V35.2495H8.90669C10.9994 35.2495 12.5097 34.8689 13.4378 34.1076C14.3659 33.3463 14.9013 32.0608 15.0441 30.2511L16.0572 30.2279V42.1037H15.0441C14.8678 40.1231 14.3438 38.6907 13.4722 37.8062C12.6007 36.9218 11.252 36.4814 9.42629 36.4852C9.26718 36.4883 9.10835 36.4998 8.95046 36.5195C8.78484 36.5402 8.61823 36.552 8.45135 36.5548V50.9214H12.2822V52.158H0Z" fill="#1D1D1B"/>
<path d="M25.1417 52.158V50.9214H28.7472V21.4919H25.1417V20.2516H48.8578V27.9441H47.8438C47.48 25.5074 46.7195 23.8218 45.5624 22.8872C44.4053 21.9527 42.4094 21.486 39.5749 21.4873H33.5893V34.9691H34.5615C36.6349 34.9691 38.1068 34.5934 38.9771 33.8421C39.8475 33.0907 40.3615 31.7811 40.5192 29.9132H41.5304V41.9338H40.4959C40.386 39.8041 39.84 38.3165 38.8579 37.4711C37.8759 36.6256 36.2072 36.2042 33.8519 36.2066H33.5893V50.9214H40.3525C42.9951 50.9214 44.9376 50.3579 46.1798 49.2308C47.4219 48.1038 48.3531 46.0459 48.9733 43.0571H50.0441L49.5441 52.1552L25.1417 52.158Z" fill="#1D1D1B"/>
<path d="M59.4257 21.4872H63.616C66.3685 21.4872 68.2082 21.9254 69.1351 22.8018C70.0619 23.6782 70.525 25.2772 70.5244 27.5987C70.5244 30.0787 69.9657 31.7959 68.8483 32.7503C67.7309 33.7047 65.5358 34.1822 62.263 34.1828H59.4257V21.4872ZM50.8589 52.158H63.1411V50.9214H59.4257V35.4175H62.263C63.3002 35.4086 64.3291 35.6016 65.2921 35.9857C66.1973 36.3447 67.0084 36.9047 67.6638 37.6233C68.559 38.6018 69.0556 40.3317 69.1537 42.8129C69.1681 42.9235 69.1765 43.0348 69.1788 43.1462C69.3371 46.6054 69.9154 49.112 70.9136 50.6661C71.9118 52.2202 73.4272 52.9972 75.4596 52.9972C76.1698 52.9918 76.8769 52.9042 77.5669 52.7364C78.3559 52.5454 79.1275 52.2886 79.8734 51.9686V50.732C79.4636 50.9331 79.0351 51.0938 78.5939 51.212C78.2061 51.3159 77.8064 51.3695 77.4048 51.3716C76.7754 51.3716 76.2632 51.2417 75.8768 50.9799C75.4903 50.7181 75.1905 50.3049 74.9847 49.7331C74.7327 49.0851 74.5908 47.8862 74.5592 46.1365C74.5275 44.3869 74.4406 43.0543 74.2984 42.1389C74.0284 40.3837 73.1652 38.8961 71.7088 37.6762C70.2525 36.4564 68.3622 35.6412 66.038 35.2309V34.8596C69.0475 34.7172 71.4202 33.9711 73.1559 32.6212C74.8916 31.2714 75.7607 29.4923 75.7632 27.284C75.7632 25.0596 74.7975 23.3313 72.8663 22.099C70.935 20.8668 68.1884 20.2513 64.6263 20.2525H51.088V21.4882H54.6935V50.9214H50.8626L50.8589 52.158Z" fill="#1D1D1B"/>
<path d="M89.4859 21.4872H93.6762C96.4293 21.4872 98.2697 21.9254 99.1971 22.8018C100.125 23.6782 100.587 25.2772 100.585 27.5987C100.585 30.0787 100.027 31.7959 98.9094 32.7503C97.792 33.7047 95.5972 34.1822 92.325 34.1828H89.4859V21.4872ZM80.9191 52.158H93.2106V50.9214H89.4859V35.4175H92.3213C93.3594 35.4086 94.3892 35.6016 95.3532 35.9857C96.258 36.3449 97.0688 36.905 97.724 37.6233C98.6185 38.6018 99.1133 40.3317 99.2083 42.8129C99.2232 42.9234 99.231 43.0348 99.2316 43.1462C99.3899 46.6054 99.969 49.112 100.969 50.6661C101.966 52.2183 103.483 52.9972 105.511 52.9972C106.226 52.9917 106.937 52.9033 107.631 52.7336C108.42 52.5427 109.191 52.2859 109.936 51.9658V50.732C109.526 50.9337 109.096 51.0945 108.654 51.212C108.268 51.3157 107.87 51.3694 107.47 51.3716C106.835 51.3716 106.324 51.241 105.937 50.9799C105.551 50.719 105.253 50.3049 105.049 49.7331C104.795 49.0851 104.653 47.8862 104.622 46.1365C104.591 44.3869 104.504 43.0543 104.36 42.1389C104.091 40.3837 103.229 38.8961 101.774 37.6762C100.318 36.4564 98.4267 35.6412 96.1 35.2309V34.8596C99.1114 34.7172 101.485 33.9711 103.22 32.6212C104.955 31.2714 105.824 29.4923 105.827 27.284C105.827 25.0596 104.861 23.3313 102.927 22.099C100.994 20.8668 98.2476 20.2513 94.6874 20.2525H81.15V21.4882H84.7574V50.9214H80.9237L80.9191 52.158Z" fill="#1D1D1B"/>
<path d="M127.207 20.2479L127.218 21.4937C129.701 21.5624 131.475 22.0266 132.541 22.8863C133.697 23.8196 134.458 25.5062 134.824 27.9459H135.837V20.2479H127.207Z" fill="#1D1D1B"/>
<path d="M134.927 43.0961C134.311 46.0818 133.382 48.1387 132.14 49.267C130.899 50.3953 128.956 50.9598 126.312 50.9604H119.547V36.2429H119.81C122.169 36.2429 123.837 36.6656 124.815 37.511C125.792 38.3565 126.339 39.844 126.454 41.9737H127.492V29.9522H126.477C126.319 31.8195 125.804 33.1291 124.934 33.8811C124.064 34.6331 122.592 35.0087 120.52 35.0081H119.548V21.5263H122.475V20.2906H111.097V21.5263H114.7V50.9557H111.097V52.1923H135.5L136 43.0943L134.927 43.0961Z" fill="#1D1D1B"/>
<path d="M8.72607 10.0172H14.693V10.5742H13.3326C13.3326 12.2069 12.8307 13.4627 11.8269 14.3416C10.8231 15.2204 9.39124 15.6599 7.53138 15.6599C5.55356 15.6599 3.97056 14.9679 2.78238 13.584C1.5942 12.2001 0.999183 10.352 0.997321 8.03976C0.989592 6.99456 1.16058 5.95569 1.50295 4.96776C1.83264 4.02629 2.33326 3.15332 2.97979 2.39245C3.56734 1.67883 4.30186 1.09944 5.1336 0.693526C5.93959 0.311983 6.82168 0.117115 7.71389 0.123504C8.39167 0.119306 9.06562 0.224971 9.7094 0.436367C10.3301 0.641789 10.9112 0.951362 11.4274 1.35174L12.2413 0.557055H12.5597V4.34575H12.0941C11.8191 3.18962 11.3082 2.28909 10.5614 1.64418C9.81462 0.999271 8.90393 0.677125 7.82935 0.677744C6.35127 0.677744 5.27079 1.27376 4.58793 2.46579C3.90507 3.65783 3.56364 5.5415 3.56364 8.11681C3.56364 10.6209 3.86658 12.4109 4.47247 13.4865C5.07835 14.5622 6.07502 15.101 7.46247 15.1028C8.67424 15.1028 9.54334 14.7934 10.0698 14.1745C10.5962 13.5555 10.8597 12.5285 10.8603 11.0932V10.5714H8.72607V10.0172Z" fill="#1D1D1B"/>
<path d="M15.6335 15.2876V14.7333H17.5192V0.924675H15.6335V0.369507H21.7551V0.924675H19.8071V14.7333H21.7551V15.2876H15.6335Z" fill="#1D1D1B"/>
<path d="M28.9596 3.28181L30.8433 9.24661H26.9324L28.9596 3.28181ZM27.0246 15.2875V14.7305H25.1417L26.7247 9.92154H31.0454L32.5436 14.7305H30.6999V15.2875H36.3847V14.7305H34.8185L30.0667 0H29.5006L24.4033 14.7333H22.6276V15.2903L27.0246 15.2875Z" fill="#1D1D1B"/>
<path d="M37.5459 15.2876V14.7333H39.2155V0.924675H37.5682V0.369507H41.9178L48.3038 11.0449V0.924675H46.6034V0.369507H50.7462V0.924675H49.0152V15.658H48.4248L39.926 1.19205V14.7333H41.6263V15.2876H37.5459Z" fill="#1D1D1B"/>
<path d="M52.5751 15.2875V14.7305H54.2754V0.928363H52.5751V0.371338H63.7054V4.316H63.2398C63.1362 3.04227 62.8081 2.15846 62.2556 1.66456C61.7031 1.17067 60.7331 0.923102 59.3457 0.921864H56.5326V7.36571H56.7458C57.7273 7.36571 58.4356 7.18716 58.8707 6.83004C59.3059 6.47293 59.557 5.87103 59.6241 5.02435L60.0897 5.01228V10.5723H59.6241C59.5427 9.64766 59.2972 8.97985 58.8875 8.56889C58.4778 8.15793 57.8446 7.95245 56.9879 7.95245C56.9132 7.95408 56.8386 7.95966 56.7644 7.96916C56.6869 7.9788 56.6089 7.98407 56.5307 7.98494V14.7333H58.3232V15.2903L52.5751 15.2875Z" fill="#1D1D1B"/>
<path d="M68.9144 0.928372H70.8698C72.1617 0.928372 73.0243 1.13354 73.4576 1.54388C73.8909 1.95423 74.1082 2.70342 74.1094 3.79148C74.1094 4.95381 73.8477 5.7584 73.3244 6.20525C72.8011 6.65211 71.7709 6.87368 70.2338 6.86997H68.9144V0.928372ZM64.9261 15.2875H70.6454V14.7305H68.9144V7.45949H70.2338C70.7229 7.45515 71.2081 7.54597 71.6623 7.72686C72.0884 7.89448 72.4705 8.15673 72.7797 8.4937C73.2012 8.95294 73.4346 9.76464 73.4799 10.9288C73.4864 10.9966 73.4902 11.0486 73.4902 11.0848C73.5634 12.7008 73.8344 13.8721 74.3031 14.5987C74.7718 15.3253 75.4801 15.6889 76.428 15.6895C76.7616 15.6865 77.0938 15.6451 77.4179 15.5661C77.7875 15.4762 78.1488 15.3553 78.498 15.2049V14.6479C78.3051 14.7433 78.1033 14.8198 77.8956 14.8763C77.7134 14.9255 77.5256 14.9511 77.3369 14.9524C77.0831 14.9637 76.8318 14.8991 76.6152 14.7667C76.4161 14.6217 76.2692 14.4166 76.1962 14.1819C76.076 13.8773 76.0099 13.3138 75.9941 12.4931C75.9928 11.8652 75.9517 11.2379 75.8712 10.615C75.747 9.79188 75.3435 9.09374 74.6607 8.52062C73.9778 7.9475 73.095 7.56409 72.0124 7.37037V7.19397C73.4185 7.12713 74.525 6.77837 75.332 6.1477C76.139 5.51702 76.5441 4.68612 76.5472 3.65501C76.5472 2.61523 76.0956 1.80754 75.1924 1.23195C74.2891 0.656358 73.0069 0.36949 71.3457 0.371347H65.0137V0.928372H66.7187V14.7333H64.9261V15.2875Z" fill="#1D1D1B"/>
<path d="M85.5508 3.28181L87.4374 9.24661H83.5264L85.5508 3.28181ZM83.6195 15.2875V14.7305H81.732L83.315 9.92154H87.6348L89.133 14.7305H87.2949V15.2875H92.9751V14.7305H91.4144L86.6617 0H86.0955L80.9992 14.7333H79.2225V15.2903L83.6195 15.2875Z" fill="#1D1D1B"/>
<path d="M94.1409 15.2876V14.7333H95.8105V0.924675H94.1632V0.369507H98.5137L104.9 11.0449V0.924675H103.198V0.369507H107.342V0.924675H105.611V15.658H105.021L96.521 1.19205V14.7333H98.2213V15.2876H94.1409Z" fill="#1D1D1B"/>
<path d="M119.99 11.3123H120.424V15.2876H119.947L119.238 14.6191C118.766 14.979 118.228 15.2444 117.655 15.4008C116.993 15.5799 116.31 15.6664 115.625 15.658C113.756 15.658 112.229 14.9515 111.044 13.5385C109.859 12.1255 109.266 10.3074 109.265 8.0843C109.257 7.06275 109.411 6.04639 109.721 5.07265C110.013 4.15682 110.468 3.30147 111.067 2.5484C111.652 1.80191 112.397 1.19487 113.247 0.771491C114.064 0.348995 114.971 0.126257 115.892 0.121629C116.477 0.117807 117.057 0.215833 117.607 0.411282C118.18 0.628689 118.715 0.936159 119.19 1.32202L119.935 0.585816H120.265V4.34573H119.799C119.489 3.14566 118.992 2.2343 118.31 1.61167C117.627 0.98904 116.789 0.677725 115.795 0.677725C114.406 0.677725 113.398 1.29448 112.77 2.52798C112.142 3.76148 111.83 5.77791 111.834 8.57727C111.834 9.89927 111.896 10.9261 112.02 11.6576C112.145 12.3892 112.347 12.9874 112.628 13.4522C112.928 13.9581 113.358 14.3747 113.874 14.6591C114.393 14.9527 114.981 15.1055 115.577 15.1019C116.661 15.1019 117.578 14.7813 118.327 14.1401C119.077 13.4989 119.633 12.556 119.998 11.3113" fill="#1D1D1B"/>
<path d="M132.459 2.39704C133.037 3.54265 133.327 5.67049 133.328 8.78055C133.328 10.9102 133.006 12.4962 132.363 13.5385C131.72 14.5807 130.741 15.1022 129.427 15.1028C128.105 15.1028 127.12 14.5835 126.474 13.545C125.828 12.5064 125.505 10.9328 125.506 8.82418C125.506 5.73764 125.799 3.60795 126.387 2.4351C126.974 1.26226 127.987 0.676451 129.427 0.677689C130.868 0.677689 131.879 1.25081 132.459 2.39704ZM131.993 15.126C132.734 14.772 133.412 14.2149 134.027 13.4549C134.64 12.7015 135.109 11.842 135.41 10.9195C135.734 9.94467 135.897 8.92377 135.893 7.89673C135.901 6.85378 135.728 5.81732 135.382 4.8331C135.051 3.89578 134.549 3.02721 133.903 2.27078C133.344 1.59675 132.65 1.04654 131.866 0.655408C131.081 0.294115 130.225 0.112513 129.361 0.123919C128.496 0.135325 127.646 0.339448 126.871 0.721322C126.094 1.12052 125.368 1.72954 124.695 2.54836C124.113 3.25817 123.667 4.0689 123.381 4.93986C123.081 5.85851 122.933 6.81941 122.941 7.78533C122.936 8.80852 123.09 9.82632 123.398 10.8025C123.677 11.7131 124.119 12.5662 124.701 13.3212C125.33 14.1258 126.024 14.7166 126.783 15.0935C127.543 15.4704 128.426 15.6586 129.432 15.6579C130.403 15.6579 131.259 15.4806 131.999 15.126" fill="#1D1D1B"/>
</g>
<defs>
<clipPath id="clip0_7101_3548">
<rect width="136" height="53" fill="white"/>
</clipPath>
</defs>
</svg>
