<svg width="56" height="56" viewBox="0 0 56 56" fill="none" xmlns="http://www.w3.org/2000/svg">
<rect width="56" height="56" rx="27.5" fill="#131313"/>
<path fill-rule="evenodd" clip-rule="evenodd" d="M28 46C37.941 46 46 37.941 46 28C46 18.059 37.941 10 28 10C18.059 10 10 18.059 10 28C10 37.941 18.059 46 28 46ZM28 48C39.046 48 48 39.046 48 28C48 16.954 39.046 8 28 8C16.954 8 8 16.954 8 28C8 39.046 16.954 48 28 48Z" fill="url(#paint0_linear_4801_2066)"/>
<path fill-rule="evenodd" clip-rule="evenodd" d="M38.6699 20.259C38.8666 20.4367 38.9847 20.6853 38.9982 20.9501C39.0117 21.2149 38.9195 21.4742 38.7419 21.671L25.3859 36.432L17.3099 28.723C17.1286 28.5377 17.0263 28.2891 17.0247 28.0299C17.0231 27.7706 17.1222 27.5208 17.3012 27.3332C17.4803 27.1456 17.7251 27.0349 17.9842 27.0244C18.2433 27.014 18.4963 27.1045 18.6899 27.277L25.2799 33.567L37.2589 20.33C37.3471 20.2326 37.4535 20.1535 37.5723 20.0972C37.691 20.041 37.8197 20.0087 37.9509 20.0022C38.0821 19.9957 38.2133 20.0151 38.3371 20.0594C38.4608 20.1036 38.5746 20.1718 38.6719 20.26L38.6699 20.259Z" fill="url(#paint1_linear_4801_2066)"/>
<defs>
<linearGradient id="paint0_linear_4801_2066" x1="8" y1="28" x2="48" y2="28" gradientUnits="userSpaceOnUse">
<stop stop-color="#A45E17"/>
<stop offset="0.317708" stop-color="#EED052"/>
<stop offset="0.630208" stop-color="#CB8B1D"/>
<stop offset="0.854167" stop-color="#A07E2D"/>
<stop offset="1" stop-color="#CD9441"/>
</linearGradient>
<linearGradient id="paint1_linear_4801_2066" x1="17.0247" y1="28.2165" x2="38.9995" y2="28.2165" gradientUnits="userSpaceOnUse">
<stop stop-color="#A45E17"/>
<stop offset="0.317708" stop-color="#EED052"/>
<stop offset="0.630208" stop-color="#CB8B1D"/>
<stop offset="0.854167" stop-color="#A07E2D"/>
<stop offset="1" stop-color="#CD9441"/>
</linearGradient>
</defs>
</svg>
