<svg width="161" height="63" viewBox="0 0 161 63" fill="none" xmlns="http://www.w3.org/2000/svg">
<path d="M0 61.877V60.4109H4.2653V25.4973H0V24.0312H28.12V34.1586H26.9104C26.6491 30.9054 25.8209 28.6473 24.4257 27.3844C23.0305 26.1215 20.583 25.4909 17.083 25.4925H9.98464V41.8158H10.5217C12.9975 41.8158 14.7838 41.3642 15.8806 40.461C16.9773 39.5578 17.6104 38.0328 17.7798 35.886L18.9894 35.8594V49.9472H17.7798C17.5717 47.5956 16.9523 45.8964 15.9217 44.8497C14.8911 43.8029 13.2967 43.2811 11.1387 43.2843C10.9501 43.2875 10.7619 43.3013 10.575 43.3255C10.379 43.3494 10.182 43.3631 9.98464 43.3666V60.4061H14.5161V61.8722H0V61.877Z" fill="white"/>
<path d="M29.7288 61.877V60.4109H33.9941V25.4973H29.7288V24.0312H57.7786V33.1594H56.5811C56.1504 30.2691 55.2512 28.2699 53.8835 27.1619C52.5158 26.0538 50.1537 25.4989 46.7972 25.4973H39.7231V41.4892H40.8723C43.3222 41.4892 45.0626 41.0432 46.0932 40.1513C47.1238 39.2594 47.7319 37.7062 47.9174 35.4917H49.1271V49.7512H47.9005C47.7698 47.2255 47.1247 45.461 45.965 44.4578C44.8053 43.4545 42.8319 42.9537 40.0448 42.9554H39.7352V60.4109H47.7335C50.8593 60.4109 53.1569 59.7423 54.6262 58.4052C56.0956 57.0682 57.1956 54.627 57.9262 51.0819H59.194L58.6036 61.877H29.7288Z" fill="white"/>
<path d="M70.2771 25.4949H75.2343C78.4907 25.4949 80.6681 26.0143 81.7665 27.053C82.8649 28.0917 83.4125 29.9884 83.4093 32.7433C83.4093 35.6852 82.7496 37.7223 81.4302 38.8545C80.1109 39.9868 77.5133 40.5513 73.6375 40.5481H70.2819V25.4877L70.2771 25.4949ZM60.1521 61.8771H74.6682V60.4109H70.2698V42.0239H73.6448C74.8717 42.0133 76.0889 42.2426 77.2278 42.6989C78.2976 43.1222 79.2567 43.7842 80.0319 44.6344C81.0883 45.7957 81.6738 47.8481 81.7883 50.7916C81.805 50.9224 81.8147 51.0541 81.8173 51.186C82.0028 55.2892 82.6867 58.2633 83.8689 60.1085C85.0512 61.9537 86.8431 62.8754 89.2447 62.8738C90.0878 62.8667 90.9273 62.762 91.7463 62.5617C92.6798 62.3353 93.5927 62.0311 94.4753 61.6521V60.1859C93.9905 60.4249 93.4832 60.6153 92.9608 60.7544C92.5024 60.8777 92.0299 60.9411 91.5552 60.9432C90.9198 60.9729 90.2902 60.8111 89.7479 60.4787C89.2444 60.1133 88.874 59.5933 88.6931 58.998C88.3947 58.2286 88.227 56.8069 88.1899 54.7327C88.1849 53.1472 88.0815 51.5635 87.8802 49.9908C87.5576 47.9069 86.5367 46.1424 84.8173 44.6973C83.098 43.2521 80.8625 42.2844 78.1109 41.7941V41.361C81.6706 41.1997 84.4762 40.3126 86.5278 38.6997C88.5794 37.0868 89.6068 34.9764 89.61 32.3683C89.61 29.7312 88.4681 27.6812 86.1842 26.2183C83.9004 24.7554 80.652 24.0296 76.4391 24.0409H60.4279V25.507H64.6932V60.4206H60.1618V61.8843L60.1521 61.8771Z" fill="white"/>
<path d="M105.834 25.4949H110.789C114.046 25.4949 116.223 26.0143 117.321 27.053C118.42 28.0917 118.966 29.9884 118.962 32.7433C118.962 35.6852 118.301 37.7223 116.98 38.8545C115.659 39.9868 113.062 40.5513 109.19 40.5481H105.837L105.834 25.4949ZM95.7021 61.8771H110.23V60.4109H105.822V42.0239H109.175C110.403 42.0135 111.621 42.2428 112.761 42.6989C113.83 43.1228 114.789 43.7847 115.565 44.6344C116.623 45.7957 117.208 47.8481 117.321 50.7916C117.339 50.9223 117.348 51.0541 117.348 51.186C117.533 55.2892 118.218 58.2633 119.402 60.1085C120.583 61.9496 122.378 62.8738 124.773 62.8738C125.618 62.8669 126.459 62.7622 127.279 62.5617C128.212 62.336 129.124 62.0317 130.006 61.6521V60.1859C129.521 60.4257 129.012 60.6161 128.489 60.7544C128.032 60.8776 127.561 60.941 127.088 60.9432C126.451 60.9736 125.82 60.8117 125.276 60.4787C124.775 60.1114 124.407 59.5919 124.226 58.998C123.926 58.2286 123.758 56.8069 123.723 54.7327C123.719 53.1472 123.616 51.5634 123.413 49.9908C123.091 47.9069 122.071 46.1424 120.355 44.6973C118.639 43.2521 116.403 42.2844 113.646 41.7941V41.361C117.208 41.1997 120.014 40.3126 122.066 38.6997C124.117 37.0868 125.145 34.9764 125.148 32.3683C125.148 29.7312 124.005 27.6812 121.72 26.2183C119.434 24.7554 116.186 24.0296 111.975 24.0409H95.9609V25.507H100.226V60.4206H95.6924V61.8843L95.7021 61.8771Z" fill="white"/>
<path d="M150.437 24.0239V25.5021C153.374 25.5828 155.471 26.1328 156.727 27.1521C158.094 28.2602 158.994 30.261 159.427 33.1545H160.625V24.0263H150.42L150.437 24.0239Z" fill="white"/>
<path d="M159.57 51.1281C158.841 54.6765 157.742 57.1167 156.273 58.449C154.803 59.7812 152.506 60.4506 149.38 60.457H141.386V42.9991H141.696C144.48 42.9991 146.453 43.5007 147.616 44.5039C148.779 45.5071 149.424 47.2717 149.552 49.7975H150.781V35.5378H149.571C149.384 37.7507 148.775 39.3039 147.744 40.1975C146.714 41.091 144.974 41.537 142.526 41.5354H141.386V25.5435H144.846V24.0774H131.39V25.5435H135.65V60.4595H131.39V61.9256H160.257L160.85 51.1305H159.582L159.57 51.1281Z" fill="white"/>
<path d="M10.3208 11.8885H17.3756V12.5466H15.7667C15.7667 14.4821 15.1731 15.9716 13.9861 17.0152C12.799 18.0587 11.1054 18.5797 8.90544 18.578C6.56674 18.578 4.69417 17.757 3.28773 16.1151C1.88128 14.4732 1.17805 12.2821 1.17805 9.54178C1.16858 8.30212 1.37068 7.06992 1.77564 5.89823C2.16452 4.78246 2.75496 3.7476 3.51757 2.84505C4.2142 1.99822 5.08464 1.31092 6.06997 0.829717C7.02261 0.37615 8.06569 0.144524 9.12076 0.152289C9.92289 0.147143 10.7205 0.273 11.482 0.524877C12.2163 0.768821 12.9036 1.13618 13.5143 1.61116L14.482 0.665218H14.8546V5.16038H14.3078C13.9853 3.7878 13.3812 2.72001 12.4957 1.95711C11.5972 1.18665 10.4443 0.777905 9.26109 0.810343C7.51432 0.810343 6.2369 1.5176 5.42884 2.93211C4.62078 4.34662 4.21756 6.58134 4.21917 9.63616C4.21917 12.6039 4.57723 14.7272 5.29336 16.0063C6.00948 17.2853 7.18851 17.924 8.83044 17.9224C10.2627 17.9224 11.2901 17.5555 11.9127 16.8216C12.5353 16.0877 12.8474 14.8692 12.849 13.1659V12.5466H10.3256V11.8885H10.3208Z" fill="white"/>
<path d="M18.4885 18.1426V17.4845H20.7192V1.1056H18.4885V0.445068H25.7272V1.1056H23.424V17.4845H25.7272V18.1426H18.4885Z" fill="white"/>
<path d="M34.2459 3.89995L36.4766 10.9765H31.8556L34.2459 3.89995ZM31.9597 18.1354V17.4773H29.7266L31.604 11.7725H36.7137L38.4871 17.4773H36.3096V18.1354H43.033V17.4773H41.1798L35.5597 0H34.8895L28.8605 17.4773H26.7605V18.1354H31.9597Z" fill="white"/>
<path d="M44.4023 18.1426V17.4845H46.3766V1.1056H44.429V0.445068H49.5725L57.1258 13.1104V1.1056H55.1153V0.445068H60.0144V1.1056H57.9677V18.5805H57.2685L47.2185 1.42249V17.4845H49.229V18.1426H44.4023Z" fill="white"/>
<path d="M62.1772 18.1355V17.4774H64.1877V1.09848H62.1772V0.44043H75.3385V5.12182H74.7893C74.6667 3.61215 74.278 2.56377 73.6232 1.97668C72.9683 1.38958 71.8216 1.09687 70.1829 1.09848H66.8538V8.73873H67.0958C68.2571 8.73873 69.095 8.52666 69.6095 8.10247C70.124 7.67828 70.4208 6.96455 70.4998 5.96133L71.0466 5.94686V12.5419H70.4998C70.403 11.4468 70.1127 10.6549 69.6288 10.1662C69.145 9.67747 68.3974 9.43554 67.3861 9.44038C67.3232 9.44038 67.2361 9.44034 67.1224 9.45969C67.0087 9.47905 66.9168 9.47906 66.8466 9.47906V17.4847H68.9659V18.1355H62.1772Z" fill="white"/>
<path d="M81.5002 1.10571H83.8059C85.3333 1.10571 86.3535 1.34764 86.8664 1.83151C87.3793 2.31538 87.6365 3.20247 87.6381 4.49279C87.6381 5.87182 87.3285 6.8258 86.7091 7.35483C86.0898 7.88386 84.872 8.1492 83.0559 8.15081H81.4954L81.5002 1.10571ZM76.7898 18.1354H83.564V17.4774H81.5172V8.85003H83.0777C83.6574 8.84469 84.2326 8.9523 84.7712 9.16692C85.2745 9.36658 85.7261 9.67758 86.0922 10.0766C86.5906 10.6234 86.8664 11.5838 86.9196 12.9653C86.9196 13.0451 86.9317 13.108 86.9317 13.1492C87.0188 15.0669 87.3414 16.4564 87.8994 17.3177C88.4575 18.179 89.2954 18.6096 90.4131 18.6096C90.8077 18.6063 91.2006 18.5576 91.5841 18.4645C92.0202 18.3571 92.4466 18.2139 92.8591 18.0363V17.371C92.6307 17.4847 92.3917 17.5754 92.1454 17.6419C91.93 17.7 91.708 17.7302 91.4849 17.7314C91.1849 17.7457 90.8874 17.6698 90.6309 17.5137C90.3952 17.3415 90.2213 17.0981 90.1349 16.8193C89.9921 16.4589 89.9147 15.7911 89.893 14.8161C89.8907 14.0711 89.8422 13.3269 89.7478 12.5879C89.6002 11.6095 89.0898 10.7225 88.318 10.1032C87.4129 9.37931 86.3316 8.90917 85.1849 8.74111V8.53308C86.8462 8.45405 88.1559 8.04031 89.1139 7.29193C89.5733 6.95018 89.9436 6.50297 90.1937 5.98799C90.4439 5.47301 90.5664 4.90538 90.551 4.33308C90.5656 3.75453 90.4247 3.1827 90.143 2.67716C89.8613 2.17162 89.4491 1.75092 88.9494 1.45892C87.8833 0.77667 86.3656 0.435547 84.3962 0.435547H76.8866V1.0936H78.897V17.4725H76.7898V18.1354Z" fill="white"/>
<path d="M101.174 3.89995L103.408 10.9765H98.7842L101.174 3.89995ZM98.8906 18.1427V17.4846H96.6576L98.535 11.7798H103.645L105.418 17.4846H103.241V18.1354H109.964V17.4773H108.113L102.493 0H101.823L95.7963 17.4773H93.6963V18.1354L98.8906 18.1427Z" fill="white"/>
<path d="M111.333 18.1426V17.4845H113.308V1.1056H111.36V0.445068H116.506L124.057 13.1104V1.1056H122.046V0.445068H126.945V1.1056H124.899V18.5805H124.199L114.15 1.42249V17.4845H116.16V18.1426H111.333Z" fill="white"/>
<path d="M141.904 13.4248H142.417V18.1353H141.853L141.014 17.3417C140.455 17.7694 139.818 18.0841 139.139 18.2684C138.357 18.4804 137.549 18.583 136.739 18.5732C135.703 18.5983 134.676 18.3846 133.737 17.9487C132.797 17.5128 131.971 16.8663 131.322 16.0595C129.919 14.3837 129.217 12.2272 129.217 9.59014C129.209 8.37814 129.391 7.17237 129.757 6.01676C130.101 4.93068 130.64 3.91653 131.348 3.02407C132.04 2.13879 132.92 1.41891 133.925 0.916827C134.892 0.415929 135.964 0.152178 137.053 0.147433C137.745 0.141514 138.433 0.257008 139.086 0.488599C139.764 0.746192 140.397 1.11044 140.961 1.56762L141.844 0.694207H142.233V5.15552H141.686C141.315 3.73295 140.727 2.65146 139.92 1.91114C139.109 1.17126 138.042 0.774208 136.944 0.803125C135.303 0.803125 134.11 1.53453 133.366 2.99743C132.623 4.46032 132.252 6.85229 132.253 10.1732C132.231 11.3948 132.303 12.6162 132.471 13.8264C132.577 14.5754 132.823 15.2977 133.197 15.9554C133.552 16.555 134.061 17.0493 134.67 17.3877C135.285 17.736 135.979 17.9171 136.686 17.9127C137.873 17.9463 139.031 17.5406 139.937 16.7732C140.823 16.0168 141.481 14.899 141.911 13.42" fill="white"/>
<path d="M156.65 2.85242C157.336 4.21209 157.678 6.73623 157.678 10.4249C157.678 12.9507 157.299 14.8322 156.539 16.0693C155.779 17.3064 154.622 17.9249 153.067 17.9249C151.504 17.9249 150.341 17.3088 149.576 16.0765C148.812 14.8443 148.429 12.9782 148.429 10.4782C148.429 6.81692 148.776 4.29111 149.47 2.9008C150.163 1.51048 151.362 0.815293 153.067 0.815293C154.761 0.815293 155.97 1.49275 156.65 2.85242ZM156.099 17.9515C157.039 17.4784 157.86 16.8005 158.503 15.9677C159.228 15.0737 159.782 14.0544 160.139 12.9604C160.522 11.804 160.715 10.5931 160.71 9.37496C160.719 8.13951 160.514 6.91184 160.105 5.74595C159.714 4.63377 159.122 3.60292 158.358 2.70482C157.694 1.90458 156.87 1.25195 155.939 0.788714C155.038 0.36092 154.052 0.144896 153.055 0.157239C152.006 0.147322 150.969 0.390518 150.033 0.866149C149.035 1.40724 148.158 2.14848 147.459 3.04356C146.771 3.8856 146.243 4.84662 145.901 5.87902C145.547 6.9687 145.372 8.10834 145.381 9.254C145.375 10.4675 145.557 11.6746 145.92 12.8322C146.251 13.9116 146.771 14.9234 147.457 15.8201C148.11 16.6964 148.952 17.4149 149.92 17.9225C150.898 18.3862 151.97 18.6156 153.053 18.5926C154.099 18.6138 155.137 18.3989 156.089 17.9636" fill="white"/>
</svg>
